<?xml version="1.0" encoding="UTF-8" standalone="no"?>
<!DOCTYPE svg PUBLIC "-//W3C//DTD SVG 1.1//EN"
 "http://www.w3.org/Graphics/SVG/1.1/DTD/svg11.dtd">
<!-- Generated by graphviz version 2.43.0 (0)
 -->
<!-- Title: Eldritch Pages: 1 -->
<svg width="990pt" height="751pt"
 viewBox="0.00 0.00 990.00 751.00" xmlns="http://www.w3.org/2000/svg" xmlns:xlink="http://www.w3.org/1999/xlink">
<g id="graph0" class="graph" transform="scale(1 1) rotate(0) translate(4 747)">
<title>Eldritch</title>
<polygon fill="white" stroke="transparent" points="-4,4 -4,-747 986,-747 986,4 -4,4"/>
<text text-anchor="middle" x="491" y="-7.8" font-family="Times,serif" font-size="14.00">Eldritch Whores and Friends</text>
<!-- Alex -->
<g id="node1" class="node">
<title>Alex</title>
<ellipse fill="#c0ffc0" stroke="black" cx="748" cy="-167" rx="72" ry="36"/>
<text text-anchor="middle" x="748" y="-163.3" font-family="Times,serif" font-size="14.00">Alex</text>
</g>
<!-- secunda -->
<g id="node17" class="node">
<title>secunda</title>
<ellipse fill="#c0ffc0" stroke="black" cx="748" cy="-59" rx="72" ry="36"/>
<text text-anchor="middle" x="748" y="-55.3" font-family="Times,serif" font-size="14.00">secunda</text>
</g>
<!-- Alex&#45;&#45;secunda -->
<g id="edge1" class="edge">
<title>Alex&#45;&#45;secunda</title>
<path fill="none" stroke="black" d="M748,-131C748,-119.54 748,-106.81 748,-95.33"/>
</g>
<!-- ArtemisFallen -->
<g id="node2" class="node">
<title>ArtemisFallen</title>
<ellipse fill="#c0ffc0" stroke="black" cx="72" cy="-599" rx="72" ry="36"/>
<text text-anchor="middle" x="72" y="-595.3" font-family="Times,serif" font-size="14.00">ArtemisFallen</text>
</g>
<!-- DangerousProfessor -->
<g id="node3" class="node">
<title>DangerousProfessor</title>
<ellipse fill="#c0ffc0" stroke="black" cx="910" cy="-167" rx="72" ry="36"/>
<text text-anchor="middle" x="910" y="-163.3" font-family="Times,serif" font-size="14.00">DangerousProfessor</text>
</g>
<!-- Pepper_Pots -->
<g id="node14" class="node">
<title>Pepper_Pots</title>
<ellipse fill="#c0ffc0" stroke="black" cx="910" cy="-59" rx="72" ry="36"/>
<text text-anchor="middle" x="910" y="-55.3" font-family="Times,serif" font-size="14.00">Pepper_Pots</text>
</g>
<!-- DangerousProfessor&#45;&#45;Pepper_Pots -->
<g id="edge2" class="edge">
<title>DangerousProfessor&#45;&#45;Pepper_Pots</title>
<path fill="none" stroke="black" d="M910,-131C910,-119.54 910,-106.81 910,-95.33"/>
</g>
<!-- effemerish -->
<g id="node4" class="node">
<title>effemerish</title>
<ellipse fill="#c0ffc0" stroke="black" cx="586" cy="-275" rx="72" ry="36"/>
<text text-anchor="middle" x="586" y="-271.3" font-family="Times,serif" font-size="14.00">effemerish</text>
</g>
<!-- netle -->
<g id="node9" class="node">
<title>netle</title>
<ellipse fill="#c0ffc0" stroke="black" cx="586" cy="-167" rx="72" ry="36"/>
<text text-anchor="middle" x="586" y="-163.3" font-family="Times,serif" font-size="14.00">netle</text>
</g>
<!-- effemerish&#45;&#45;netle -->
<g id="edge3" class="edge">
<title>effemerish&#45;&#45;netle</title>
<path fill="none" stroke="black" d="M586,-239C586,-227.54 586,-214.81 586,-203.33"/>
</g>
<!-- Elipsis -->
<g id="node5" class="node">
<title>Elipsis</title>
<ellipse fill="#c0ffc0" stroke="black" cx="234" cy="-707" rx="72" ry="36"/>
<text text-anchor="middle" x="234" y="-703.3" font-family="Times,serif" font-size="14.00">Elipsis</text>
</g>
<!-- Elipsis&#45;&#45;ArtemisFallen -->
<g id="edge4" class="edge">
<title>Elipsis&#45;&#45;ArtemisFallen</title>
<path fill="none" stroke="black" d="M191.01,-677.87C167.48,-662.48 138.42,-643.46 114.91,-628.08"/>
</g>
<!-- Nynaeve -->
<g id="node11" class="node">
<title>Nynaeve</title>
<ellipse fill="#c0ffc0" stroke="black" cx="234" cy="-599" rx="72" ry="36"/>
<text text-anchor="middle" x="234" y="-595.3" font-family="Times,serif" font-size="14.00">Nynaeve</text>
</g>
<!-- Elipsis&#45;&#45;Nynaeve -->
<g id="edge5" class="edge">
<title>Elipsis&#45;&#45;Nynaeve</title>
<path fill="none" stroke="black" d="M234,-671C234,-659.54 234,-646.81 234,-635.33"/>
</g>
<!-- something2summer -->
<g id="node18" class="node">
<title>something2summer</title>
<ellipse fill="#c0ffc0" stroke="black" cx="446" cy="-599" rx="72" ry="36"/>
<text text-anchor="middle" x="446" y="-595.3" font-family="Times,serif" font-size="14.00">something2summer</text>
</g>
<!-- Elipsis&#45;&#45;something2summer -->
<g id="edge6" class="edge">
<title>Elipsis&#45;&#45;something2summer</title>
<path fill="none" stroke="black" d="M283.97,-681.01C317.76,-664.12 362.2,-641.9 396,-625"/>
</g>
<!-- FrayedKnotPhotography -->
<g id="node6" class="node">
<title>FrayedKnotPhotography</title>
<ellipse fill="#c0ffc0" stroke="black" cx="586" cy="-383" rx="72" ry="36"/>
<text text-anchor="middle" x="586" y="-379.3" font-family="Times,serif" font-size="14.00">FrayedKnotPhotography</text>
</g>
<!-- JT -->
<g id="node7" class="node">
<title>JT</title>
<ellipse fill="#c0ffc0" stroke="black" cx="72" cy="-491" rx="72" ry="36"/>
<text text-anchor="middle" x="72" y="-487.3" font-family="Times,serif" font-size="14.00">JT</text>
</g>
<!-- MaximPetrov -->
<g id="node8" class="node">
<title>MaximPetrov</title>
<ellipse fill="#c0ffc0" stroke="black" cx="396" cy="-491" rx="72" ry="36"/>
<text text-anchor="middle" x="396" y="-487.3" font-family="Times,serif" font-size="14.00">MaximPetrov</text>
</g>
<!-- VelvetJezebel -->
<g id="node19" class="node">
<title>VelvetJezebel</title>
<ellipse fill="#c0ffc0" stroke="black" cx="415" cy="-383" rx="72" ry="36"/>
<text text-anchor="middle" x="415" y="-379.3" font-family="Times,serif" font-size="14.00">VelvetJezebel</text>
</g>
<!-- MaximPetrov&#45;&#45;VelvetJezebel -->
<g id="edge7" class="edge">
<title>MaximPetrov&#45;&#45;VelvetJezebel</title>
<path fill="none" stroke="black" d="M402.27,-455C404.35,-443.42 406.66,-430.54 408.73,-418.97"/>
</g>
<!-- wigglebug -->
<g id="node20" class="node">
<title>wigglebug</title>
<ellipse fill="#c0ffc0" stroke="black" cx="586" cy="-59" rx="72" ry="36"/>
<text text-anchor="middle" x="586" y="-55.3" font-family="Times,serif" font-size="14.00">wigglebug</text>
</g>
<!-- netle&#45;&#45;wigglebug -->
<g id="edge10" class="edge">
<title>netle&#45;&#45;wigglebug</title>
<path fill="none" stroke="black" d="M586,-131C586,-119.54 586,-106.81 586,-95.33"/>
</g>
<!-- Neuromancer28 -->
<g id="node10" class="node">
<title>Neuromancer28</title>
<ellipse fill="#c0ffc0" stroke="black" cx="596" cy="-491" rx="72" ry="36"/>
<text text-anchor="middle" x="596" y="-487.3" font-family="Times,serif" font-size="14.00">Neuromancer28</text>
</g>
<!-- Neuromancer28&#45;&#45;FrayedKnotPhotography -->
<g id="edge8" class="edge">
<title>Neuromancer28&#45;&#45;FrayedKnotPhotography</title>
<path fill="none" stroke="black" d="M592.7,-455C591.61,-443.42 590.39,-430.54 589.3,-418.97"/>
</g>
<!-- owlfinch -->
<g id="node13" class="node">
<title>owlfinch</title>
<ellipse fill="#c0ffc0" stroke="black" cx="748" cy="-383" rx="72" ry="36"/>
<text text-anchor="middle" x="748" y="-379.3" font-family="Times,serif" font-size="14.00">owlfinch</text>
</g>
<!-- Neuromancer28&#45;&#45;owlfinch -->
<g id="edge9" class="edge">
<title>Neuromancer28&#45;&#45;owlfinch</title>
<path fill="none" stroke="black" d="M637.13,-461.31C658.76,-446.23 685.2,-427.79 706.83,-412.71"/>
</g>
<!-- Nynaeve&#45;&#45;JT -->
<g id="edge11" class="edge">
<title>Nynaeve&#45;&#45;JT</title>
<path fill="none" stroke="black" d="M191.01,-569.87C167.48,-554.48 138.42,-535.46 114.91,-520.08"/>
</g>
<!-- Phil -->
<g id="node15" class="node">
<title>Phil</title>
<ellipse fill="#c0ffc0" stroke="black" cx="234" cy="-491" rx="72" ry="36"/>
<text text-anchor="middle" x="234" y="-487.3" font-family="Times,serif" font-size="14.00">Phil</text>
</g>
<!-- Nynaeve&#45;&#45;Phil -->
<g id="edge12" class="edge">
<title>Nynaeve&#45;&#45;Phil</title>
<path fill="none" stroke="black" d="M234,-563C234,-551.54 234,-538.81 234,-527.33"/>
</g>
<!-- NyssaRose -->
<g id="node12" class="node">
<title>NyssaRose</title>
<ellipse fill="#c0ffc0" stroke="black" cx="748" cy="-275" rx="72" ry="36"/>
<text text-anchor="middle" x="748" y="-271.3" font-family="Times,serif" font-size="14.00">NyssaRose</text>
</g>
<!-- NyssaRose&#45;&#45;Alex -->
<g id="edge13" class="edge">
<title>NyssaRose&#45;&#45;Alex</title>
<path fill="none" stroke="black" d="M748,-239C748,-227.54 748,-214.81 748,-203.33"/>
</g>
<!-- NyssaRose&#45;&#45;DangerousProfessor -->
<g id="edge14" class="edge">
<title>NyssaRose&#45;&#45;DangerousProfessor</title>
<path fill="none" stroke="black" d="M790.99,-245.87C814.52,-230.48 843.58,-211.46 867.09,-196.08"/>
</g>
<!-- owlfinch&#45;&#45;effemerish -->
<g id="edge15" class="edge">
<title>owlfinch&#45;&#45;effemerish</title>
<path fill="none" stroke="black" d="M705.01,-353.87C681.48,-338.48 652.42,-319.46 628.91,-304.08"/>
</g>
<!-- owlfinch&#45;&#45;NyssaRose -->
<g id="edge16" class="edge">
<title>owlfinch&#45;&#45;NyssaRose</title>
<path fill="none" stroke="black" d="M748,-347C748,-335.54 748,-322.81 748,-311.33"/>
</g>
<!-- Sebastian -->
<g id="node16" class="node">
<title>Sebastian</title>
<ellipse fill="#c0ffc0" stroke="black" cx="910" cy="-275" rx="72" ry="36"/>
<text text-anchor="middle" x="910" y="-271.3" font-family="Times,serif" font-size="14.00">Sebastian</text>
</g>
<!-- owlfinch&#45;&#45;Sebastian -->
<g id="edge17" class="edge">
<title>owlfinch&#45;&#45;Sebastian</title>
<path fill="none" stroke="black" d="M790.99,-353.87C814.52,-338.48 843.58,-319.46 867.09,-304.08"/>
</g>
<!-- something2summer&#45;&#45;MaximPetrov -->
<g id="edge18" class="edge">
<title>something2summer&#45;&#45;MaximPetrov</title>
<path fill="none" stroke="black" d="M429.9,-563.88C424.25,-551.89 417.9,-538.43 412.24,-526.42"/>
</g>
<!-- something2summer&#45;&#45;Neuromancer28 -->
<g id="edge19" class="edge">
<title>something2summer&#45;&#45;Neuromancer28</title>
<path fill="none" stroke="black" d="M486.99,-569.04C508.24,-554.02 534.11,-535.73 555.32,-520.75"/>
</g>
<!-- something2summer&#45;&#45;VelvetJezebel -->
<g id="edge20" class="edge">
<title>something2summer&#45;&#45;VelvetJezebel</title>
<path fill="none" stroke="black" d="M464.04,-563.98C477.18,-534.5 490.52,-491.03 477,-455 471.37,-439.98 460.96,-426.06 450.26,-414.59"/>
</g>
</g>
</svg>
