<?xml version="1.0" encoding="UTF-8" standalone="no"?>
<!DOCTYPE svg PUBLIC "-//W3C//DTD SVG 1.1//EN"
 "http://www.w3.org/Graphics/SVG/1.1/DTD/svg11.dtd">
<!-- Generated by graphviz version 2.43.0 (0)
 -->
<!-- Title: SampleLesbianQuad Pages: 1 -->
<svg width="287pt" height="250pt"
 viewBox="0.00 0.00 287.32 249.87" xmlns="http://www.w3.org/2000/svg" xmlns:xlink="http://www.w3.org/1999/xlink">
<g id="graph0" class="graph" transform="scale(1 1) rotate(0) translate(4 245.87)">
<title>SampleLesbianQuad</title>
<polygon fill="white" stroke="transparent" points="-4,4 -4,-245.87 283.32,-245.87 283.32,4 -4,4"/>
<!-- Alice -->
<g id="node1" class="node">
<title>Alice</title>
<ellipse fill="none" stroke="black" cx="131.53" cy="-18" rx="33.29" ry="18"/>
<text text-anchor="middle" x="131.53" y="-14.3" font-family="Times,serif" font-size="14.00">Alice</text>
</g>
<!-- Beatrix -->
<g id="node2" class="node">
<title>Beatrix</title>
<ellipse fill="none" stroke="black" cx="234.47" cy="-120.94" rx="44.69" ry="18"/>
<text text-anchor="middle" x="234.47" y="-117.24" font-family="Times,serif" font-size="14.00">Beatrix</text>
</g>
<!-- Alice&#45;&#45;Beatrix -->
<g id="edge1" class="edge">
<title>Alice&#45;&#45;Beatrix</title>
<path fill="none" stroke="black" d="M147.62,-34.08C166.62,-53.08 198.08,-84.55 217.47,-103.94"/>
</g>
<!-- Carol -->
<g id="node3" class="node">
<title>Carol</title>
<ellipse fill="none" stroke="black" cx="131.53" cy="-223.87" rx="36" ry="18"/>
<text text-anchor="middle" x="131.53" y="-220.17" font-family="Times,serif" font-size="14.00">Carol</text>
</g>
<!-- Alice&#45;&#45;Carol -->
<g id="edge2" class="edge">
<title>Alice&#45;&#45;Carol</title>
<path fill="none" stroke="black" d="M131.53,-36.27C131.53,-75.34 131.53,-166.61 131.53,-205.64"/>
</g>
<!-- Eve -->
<g id="node4" class="node">
<title>Eve</title>
<ellipse fill="none" stroke="black" cx="28.6" cy="-120.94" rx="28.7" ry="18"/>
<text text-anchor="middle" x="28.6" y="-117.24" font-family="Times,serif" font-size="14.00">Eve</text>
</g>
<!-- Alice&#45;&#45;Eve -->
<g id="edge3" class="edge">
<title>Alice&#45;&#45;Eve</title>
<path fill="none" stroke="black" d="M115.45,-34.08C95.89,-53.65 63.1,-86.43 43.9,-105.64"/>
</g>
<!-- Beatrix&#45;&#45;Carol -->
<g id="edge5" class="edge">
<title>Beatrix&#45;&#45;Carol</title>
<path fill="none" stroke="black" d="M217.47,-137.93C198.17,-157.24 166.9,-188.51 147.88,-207.53"/>
</g>
<!-- Beatrix&#45;&#45;Eve -->
<g id="edge4" class="edge">
<title>Beatrix&#45;&#45;Eve</title>
<path fill="none" stroke="black" d="M189.54,-120.94C149.32,-120.94 91.54,-120.94 57.27,-120.94"/>
</g>
<!-- Carol&#45;&#45;Eve -->
<g id="edge6" class="edge">
<title>Carol&#45;&#45;Eve</title>
<path fill="none" stroke="black" d="M115.45,-207.79C95.89,-188.22 63.1,-155.44 43.9,-136.24"/>
</g>
</g>
</svg>
