<?xml version="1.0" encoding="UTF-8" standalone="no"?>
<!DOCTYPE svg PUBLIC "-//W3C//DTD SVG 1.1//EN"
 "http://www.w3.org/Graphics/SVG/1.1/DTD/svg11.dtd">
<!-- Generated by graphviz version 2.43.0 (0)
 -->
<!-- Title: SampleLesbianQuad Pages: 1 -->
<svg width="298pt" height="250pt"
 viewBox="0.00 0.00 297.72 249.87" xmlns="http://www.w3.org/2000/svg" xmlns:xlink="http://www.w3.org/1999/xlink">
<g id="graph0" class="graph" transform="scale(1 1) rotate(0) translate(4 245.87)">
<title>SampleLesbianQuad</title>
<polygon fill="white" stroke="transparent" points="-4,4 -4,-245.87 293.72,-245.87 293.72,4 -4,4"/>
<!-- Alice -->
<g id="node1" class="node">
<title>Alice</title>
<ellipse fill="none" stroke="black" cx="141.93" cy="-18" rx="33.29" ry="18"/>
<text text-anchor="middle" x="141.93" y="-14.3" font-family="Times,serif" font-size="14.00">Alice</text>
</g>
<!-- Beatrix -->
<g id="node2" class="node">
<title>Beatrix</title>
<ellipse fill="none" stroke="black" cx="244.87" cy="-120.94" rx="44.69" ry="18"/>
<text text-anchor="middle" x="244.87" y="-117.24" font-family="Times,serif" font-size="14.00">Beatrix</text>
</g>
<!-- Alice&#45;&#45;Beatrix -->
<g id="edge1" class="edge">
<title>Alice&#45;&#45;Beatrix</title>
<path fill="none" stroke="black" d="M158.02,-34.08C177.02,-53.08 208.48,-84.55 227.87,-103.94"/>
</g>
<!-- Carol -->
<g id="node3" class="node">
<title>Carol</title>
<ellipse fill="none" stroke="black" cx="141.93" cy="-223.87" rx="36" ry="18"/>
<text text-anchor="middle" x="141.93" y="-220.17" font-family="Times,serif" font-size="14.00">Carol</text>
</g>
<!-- Alice&#45;&#45;Carol -->
<g id="edge2" class="edge">
<title>Alice&#45;&#45;Carol</title>
<path fill="none" stroke="black" d="M141.93,-36.27C141.93,-75.34 141.93,-166.61 141.93,-205.64"/>
</g>
<!-- Eevee -->
<g id="node4" class="node">
<title>Eevee</title>
<ellipse fill="none" stroke="black" cx="39" cy="-120.94" rx="38.99" ry="18"/>
<text text-anchor="middle" x="39" y="-117.24" font-family="Times,serif" font-size="14.00">Eevee</text>
</g>
<!-- Alice&#45;&#45;Eevee -->
<g id="edge3" class="edge">
<title>Alice&#45;&#45;Eevee</title>
<path fill="none" stroke="black" d="M125.85,-34.08C106.74,-53.2 75.01,-84.92 55.65,-104.28"/>
</g>
<!-- Beatrix&#45;&#45;Carol -->
<g id="edge5" class="edge">
<title>Beatrix&#45;&#45;Carol</title>
<path fill="none" stroke="black" d="M227.87,-137.93C208.57,-157.24 177.3,-188.51 158.28,-207.53"/>
</g>
<!-- Beatrix&#45;&#45;Eevee -->
<g id="edge4" class="edge">
<title>Beatrix&#45;&#45;Eevee</title>
<path fill="none" stroke="black" d="M199.94,-120.94C163.62,-120.94 112.99,-120.94 78.27,-120.94"/>
</g>
<!-- Carol&#45;&#45;Eevee -->
<g id="edge6" class="edge">
<title>Carol&#45;&#45;Eevee</title>
<path fill="none" stroke="black" d="M125.85,-207.79C106.74,-188.68 75.01,-156.95 55.65,-137.59"/>
</g>
</g>
</svg>
